HIERARCHY
ROOT Hips
{
	OFFSET 0.00000 0.00000 0.00000
	CHANNELS 6 Xposition Yposition Zposition Zrotation Yrotation Xrotation 
	JOINT LHipJoint
	{
		OFFSET 0 0 0
		CHANNELS 3 Zrotation Yrotation Xrotation
		JOINT LeftHip
		{
			OFFSET 1.65412 -1.54119 0.76744
			CHANNELS 3 Zrotation Yrotation Xrotation
			JOINT LeftKnee
			{
				OFFSET 2.19550 -6.03209 0.00000
				CHANNELS 3 Zrotation Yrotation Xrotation
				JOINT LeftAnkle
				{
					OFFSET 2.38814 -6.56138 0.00000
					CHANNELS 3 Zrotation Yrotation Xrotation
					JOINT LeftToe
					{
						OFFSET 0.17337 -0.47632 1.75875
						CHANNELS 3 Zrotation Yrotation Xrotation
						End Site
						{
							OFFSET 0.00000 -0.00000 0.92050
						}
					}
				}
			}
		}
	}
	JOINT RHipJoint
	{
		OFFSET 0 0 0
		CHANNELS 3 Zrotation Yrotation Xrotation
		JOINT RightHip
		{
			OFFSET -1.40291 -1.54119 0.76744
			CHANNELS 3 Zrotation Yrotation Xrotation
			JOINT RightKnee
			{
				OFFSET -2.22156 -6.10370 0.00000
				CHANNELS 3 Zrotation Yrotation Xrotation
				JOINT RightAnkle
				{
					OFFSET -2.46840 -6.78188 0.00000
					CHANNELS 3 Zrotation Yrotation Xrotation
					JOINT RightToe
					{
						OFFSET -0.15659 -0.43024 1.84117
						CHANNELS 3 Zrotation Yrotation Xrotation
						End Site
						{
							OFFSET -0.00000 -0.00000 0.95587
						}
					}
				}
			}
		}
	}
	JOINT lowerback
	{
		OFFSET 0 0 0
		CHANNELS 3 Zrotation Yrotation Xrotation
		JOINT Chest
		{
			OFFSET -0.01936 1.82120 -0.32061
			CHANNELS 3 Zrotation Yrotation Xrotation
			JOINT Chest2
			{
				OFFSET -0.00532 1.85767 -0.00071
				CHANNELS 3 Zrotation Yrotation Xrotation
				JOINT lowerneck
				{
					OFFSET 0 0 0
					CHANNELS 3 Zrotation Yrotation Xrotation
					JOINT Neck
					{
						OFFSET -0.10687 1.58194 0.10810
						CHANNELS 3 Zrotation Yrotation Xrotation
						JOINT Head
						{
							OFFSET 0.15346 1.57382 -0.25612
							CHANNELS 3 Zrotation Yrotation Xrotation
							End Site
							{
								OFFSET 0.05334 1.61251 -0.10513
							}
						}
					}
				}
				JOINT LeftCollar
				{
					OFFSET 0 0 0
					CHANNELS 3 Zrotation Yrotation Xrotation
					JOINT LeftShoulder
					{
						OFFSET 2.85758 0.89498 -0.01485
CHANNELS 3 Zrotation Xrotation Yrotation
						JOINT LeftElbow
						{
OFFSET 0 -4.791850 -0.000000
CHANNELS 3 Zrotation Xrotation Yrotation
							JOINT LeftWrist
							{
OFFSET 0 -2.655530 0.000000
CHANNELS 3 Zrotation Xrotation Yrotation
								JOINT lhand
								{
									OFFSET 0 0 0
CHANNELS 3 Zrotation Xrotation Yrotation
									JOINT LFingers
									{
OFFSET 0 -0.743900 0.000000
CHANNELS 3 Zrotation Xrotation Yrotation
										End Site
										{
OFFSET 0 -0.599750 0.000000
										}
									}
								}
								JOINT LThumb
								{
OFFSET 0 0.000000 0.000000
CHANNELS 3 Zrotation Xrotation Yrotation
									End Site
									{
OFFSET 0 -0.608910 0.608910
									}
								}
							}
						}
					}
				}
				JOINT RightCollar
				{
					OFFSET 0 0 0
					CHANNELS 3 Zrotation Yrotation Xrotation
					JOINT RightShoulder
					{
						OFFSET -2.93906 0.88031 0.02490
CHANNELS 3 Zrotation Xrotation Yrotation
						JOINT RightElbow
						{
OFFSET 0 -4.772540 -0.000000
CHANNELS 3 Zrotation Xrotation Yrotation
							JOINT RightWrist
							{
OFFSET 0 -2.759950 -0.000000
CHANNELS 3 Zrotation Xrotation Yrotation
								JOINT rhand
								{
									OFFSET 0 0 0
CHANNELS 3 Zrotation Xrotation Yrotation
									JOINT RFingers
									{
OFFSET 0 -0.701620 0.000000
CHANNELS 3 Zrotation Xrotation Yrotation
										End Site
										{
OFFSET 0 -0.565660 0.000000
										}
									}
								}
								JOINT RThumb
								{
OFFSET 0 0.000000 0.000000
CHANNELS 3 Zrotation Xrotation Yrotation
									End Site
									{
OFFSET 0 -0.574300 0.574300
									}
								}
							}
						}
					}
				}
			}
		}
	}
}
MOTION
Frames: 10
Frame Time: 0.008333333333333333
0.407800 16.188400 0.281300 0.359200 -1.982400 4.517500 0.000000 0.000000 0.000000 -18.813500 -4.462800 6.300800 0.000000 0.000000 0.000000 -0.080600 7.861000 -9.296200 0.223700 -3.044300 -8.402200 0.000000 0.000000 0.000000 15.971900 11.389100 0.473600 -0.523000 -4.634800 12.869700 -0.149700 -9.687400 -16.071300 -0.034700 1.203100 -3.307700 -5.083300 0.230200 4.983200 -3.068300 -0.024800 0.942700 -0.308000 0.008700 -1.823400 -16.335800 -12.158400 -5.136400 11.162900 -17.255900 20.717000 4.470100 -8.475300 9.823600 -0.000000 -0.000000 0.000000 46.915800 25.525600 -97.279300 98.991300 -59.692300 67.778600 47.702000 -10.435300 16.579500 0.000000 0.000000 0.000000 -7.125000 0.000000 0.000000 12.653900 6.591900 11.406400 -0.000000 -0.000000 0.000000 -41.955900 20.164700 97.852900 -85.249200 -59.914500 -55.886800 -68.173000 -13.229500 -34.149700 0.000000 0.000000 0.000000 7.125000 0.000000 -0.000000 -18.241100 -29.003200 -25.616200
0.404360 16.188027 0.278967 0.403847 -2.076859 4.478876 0.000000 0.000000 0.000000 -18.858780 -4.362949 6.312217 0.000000 0.000000 0.000000 -0.079087 7.899566 -9.406083 0.290152 -3.463632 -9.572330 0.000000 0.000000 0.000000 15.937427 11.413165 0.389851 -0.540280 -4.709420 13.081473 -0.162113 -9.563337 -16.092984 -0.043040 1.338929 -3.681815 -5.259935 0.241920 5.036465 -3.039006 -0.023860 0.912006 -0.179739 0.011727 -1.884880 -16.253825 -12.114825 -5.377587 11.187283 -17.183252 20.778044 4.464189 -8.423320 9.872625 0.000000 0.000000 0.000000 46.849173 25.582805 -97.324993 98.885089 -59.699593 67.686969 47.775303 -10.545148 16.640380 0.000000 0.000000 0.000000 -7.125000 0.000000 0.000000 12.683784 6.484708 11.461551 0.000000 0.000000 0.000000 -42.096594 20.116100 97.992818 -85.350104 -59.918180 -55.974183 -67.716318 -13.236935 -34.705468 0.000000 0.000000 0.000000 7.125000 0.000000 0.000000 -17.761044 -29.149461 -24.913608
0.398420 16.191340 0.283107 0.442521 -2.110613 4.465891 0.000000 0.000000 0.000000 -18.885041 -4.318903 6.343114 0.000000 0.000000 0.000000 -0.077426 7.893588 -9.439853 0.241205 -3.160273 -8.725221 0.000000 0.000000 0.000000 15.934143 11.259104 0.297780 -0.550274 -4.752204 13.203238 -0.143205 -9.641974 -15.926385 -0.082368 1.848312 -5.086678 -5.393711 0.223848 5.050630 -3.055222 -0.060245 0.847651 -0.119897 -0.003459 -1.957874 -16.180895 -12.082638 -5.370424 11.215140 -17.151738 20.728135 4.469158 -8.402407 9.843811 0.000000 0.000000 0.000000 46.907826 25.667830 -97.288098 99.205387 -59.677367 67.963495 47.355280 -11.571472 17.279711 0.000000 0.000000 0.000000 -7.125000 0.000000 0.000000 12.281799 5.785007 11.248894 0.000000 0.000000 0.000000 -42.151960 20.171558 98.219276 -85.191935 -59.912474 -55.837294 -68.003324 -13.081866 -34.179719 0.000000 0.000000 0.000000 7.125000 0.000000 0.000000 -18.138565 -28.879085 -25.449784
0.392801 16.191340 0.289159 0.103069 -2.119491 4.479323 0.000000 0.000000 0.000000 -18.489215 -4.275815 6.355895 0.000000 0.000000 0.000000 -0.079800 7.914860 -9.413079 0.246141 -3.192425 -8.814974 0.000000 0.000000 0.000000 16.343856 11.209504 0.584398 -0.510599 -4.580376 12.715589 -0.115985 -9.769187 -15.700167 -0.092952 1.963549 -5.404988 -5.039903 0.203736 5.073534 -3.004713 -0.071927 0.784805 -0.264348 -0.009324 -2.035551 -16.273513 -12.101320 -5.427404 11.404169 -17.208899 20.747986 4.535635 -8.418140 9.897921 0.000000 0.000000 0.000000 47.019172 25.699932 -97.432376 99.040729 -59.688919 67.821308 47.277136 -10.693102 16.829098 0.000000 0.000000 0.000000 -7.125000 0.000000 0.000000 12.340006 6.409151 11.153664 0.000000 0.000000 0.000000 -42.100956 20.156496 98.310907 -84.955562 -59.903640 -55.632802 -67.947707 -12.804015 -33.928051 0.000000 0.000000 0.000000 7.125000 0.000000 0.000000 -18.216524 -28.573077 -25.534126
0.387567 16.188061 0.299899 0.066278 -2.193966 4.464261 0.000000 0.000000 0.000000 -18.437163 -4.177511 6.400327 0.000000 0.000000 0.000000 -0.075660 7.865878 -9.438761 0.254984 -3.249025 -8.972772 0.000000 0.000000 0.000000 16.395706 11.421283 0.745797 -0.504486 -4.553292 12.638709 -0.153164 -9.576541 -15.985187 -0.035957 1.213832 -3.337471 -5.046555 0.228486 5.074953 -2.991481 -0.041584 0.743132 -0.249178 0.007047 -2.080340 -16.303052 -12.049570 -5.501743 11.528053 -17.145423 20.689094 4.589589 -8.378094 9.895591 0.000000 0.000000 0.000000 46.997824 25.704782 -97.488096 99.011337 -59.690894 67.795999 47.354304 -11.135005 17.071729 0.000000 0.000000 0.000000 -7.125000 0.000000 0.000000 12.329825 6.060486 11.228532 0.000000 0.000000 0.000000 -42.174481 20.105391 98.438809 -84.970418 -59.904153 -55.645647 -68.140387 -13.251395 -34.096402 0.000000 0.000000 0.000000 7.125000 0.000000 0.000000 -18.246786 -28.919531 -25.615891
0.387033 16.190733 0.313866 0.161514 -2.257097 4.483601 0.000000 0.000000 0.000000 -18.556879 -4.111970 6.416095 0.000000 0.000000 0.000000 -0.073102 7.890087 -9.547691 0.271436 -3.351517 -9.258880 0.000000 0.000000 0.000000 16.267826 11.009744 0.373664 -0.534428 -4.684309 13.010231 -0.145632 -9.409531 -15.677155 -0.093559 1.971716 -5.427534 -5.096317 0.209731 5.026002 -3.042259 -0.070635 0.673396 -0.272034 -0.005601 -2.124139 -16.287692 -11.979729 -5.502259 11.541861 -17.051135 20.674852 4.608182 -8.332835 9.875259 0.000000 0.000000 0.000000 47.013197 25.838834 -97.455646 99.159371 -59.680635 67.923742 47.264552 -10.834988 16.899688 0.000000 0.000000 0.000000 -7.125000 0.000000 0.000000 12.316057 6.320096 11.152423 0.000000 0.000000 0.000000 -42.198113 20.015452 98.645594 -84.801849 -59.897635 -55.499809 -67.897499 -12.780990 -33.739295 0.000000 0.000000 0.000000 7.125000 0.000000 0.000000 -18.269740 -28.334596 -25.588167
0.382981 16.186900 0.328798 0.312397 -2.257107 4.462740 0.000000 0.000000 0.000000 -18.724860 -4.097638 6.490506 0.000000 0.000000 0.000000 -0.074401 7.939150 -9.598288 0.259590 -3.277675 -9.052839 0.000000 0.000000 0.000000 16.112683 11.039669 0.416981 -0.543922 -4.724988 13.125882 -0.176192 -9.251670 -15.915921 -0.069482 1.691930 -4.655325 -5.289554 0.204244 4.944491 -3.041336 -0.079995 0.707085 -0.162412 -0.010658 -2.043041 -16.391775 -12.017241 -5.666480 11.490361 -17.057070 20.715157 4.594022 -8.339381 9.926920 0.000000 0.000000 0.000000 46.912560 25.686424 -97.501250 98.929275 -59.696556 67.725088 47.391562 -11.432328 17.044171 0.000000 0.000000 0.000000 -7.125000 0.000000 0.000000 12.358600 6.083746 11.250465 0.000000 0.000000 0.000000 -42.294724 19.863565 98.612791 -84.852672 -59.899640 -55.543813 -68.176869 -13.370739 -33.984827 0.000000 0.000000 0.000000 7.125000 0.000000 0.000000 -18.313537 -28.839722 -25.707500
0.380453 16.187020 0.342904 0.375823 -2.250650 4.476552 0.000000 0.000000 0.000000 -18.789363 -4.094703 6.529928 0.000000 0.000000 0.000000 -0.073231 7.894521 -9.551878 0.284082 -3.427787 -9.472081 0.000000 0.000000 0.000000 16.067566 11.017225 0.426164 -0.548527 -4.744709 13.181786 -0.175723 -9.286616 -15.950800 -0.071353 1.723086 -4.741051 -5.358201 0.199679 4.982202 -3.047821 -0.097923 0.619831 -0.130261 -0.015938 -2.153705 -16.459783 -12.024550 -5.725411 11.486865 -17.069596 20.890910 4.597440 -8.347274 10.009121 0.000000 0.000000 0.000000 46.871766 25.823607 -97.643871 98.694736 -59.712407 67.522602 47.362673 -11.144128 16.848115 0.000000 0.000000 0.000000 -7.125000 0.000000 0.000000 12.387020 6.353876 11.211733 0.000000 0.000000 0.000000 -42.340249 19.805922 98.791084 -84.791689 -59.897254 -55.491005 -68.194506 -13.810802 -34.447594 0.000000 0.000000 0.000000 7.125000 0.000000 0.000000 -18.124034 -29.322174 -25.473083
0.378767 16.186026 0.359590 0.287001 -2.234472 4.571274 0.000000 0.000000 0.000000 -18.686229 -4.108958 6.510061 0.000000 0.000000 0.000000 -0.075129 7.905718 -9.520710 0.249127 -3.211773 -8.868895 0.000000 0.000000 0.000000 16.168972 11.035034 0.473631 -0.538067 -4.699982 13.054933 -0.177490 -9.299411 -15.990154 -0.055281 1.517345 -4.173625 -5.294672 0.178138 4.897733 -3.005844 -0.116956 0.593309 -0.120841 -0.025767 -2.133109 -16.384276 -12.047443 -5.908740 11.481516 -17.078721 20.838476 4.571557 -8.338430 10.018012 0.000000 0.000000 0.000000 46.805109 25.804349 -97.576460 98.762801 -59.707812 67.581379 47.340957 -11.313805 16.846678 0.000000 0.000000 0.000000 -7.125000 0.000000 0.000000 12.374314 6.363510 11.197321 0.000000 0.000000 0.000000 -42.467947 19.785641 98.910035 -84.872806 -59.900419 -55.561162 -68.215277 -13.906284 -34.524064 0.000000 0.000000 0.000000 7.125000 0.000000 0.000000 -18.101842 -29.417499 -25.449461
0.372842 16.192959 0.361480 -0.456015 -2.224896 4.897387 0.000000 0.000000 0.000000 -17.793518 -4.161171 6.183307 0.000000 0.000000 0.000000 -0.070541 7.886976 -9.609471 0.243420 -3.174387 -8.764793 0.000000 0.000000 0.000000 17.020318 11.294429 0.724759 -0.471664 -4.404333 12.217179 -0.117169 -9.753192 -15.697528 -0.063866 1.629672 -4.483257 -4.572191 0.168154 4.824437 -2.850066 -0.086993 0.508500 -0.364859 -0.014615 -2.181138 -16.142646 -12.102956 -6.236141 11.558453 -17.156568 20.771956 4.530067 -8.336415 10.050888 0.000000 0.000000 0.000000 46.912983 25.708029 -97.605802 98.754121 -59.708459 67.573878 47.275312 -11.176468 16.854796 0.000000 0.000000 0.000000 -7.125000 0.000000 0.000000 12.332857 6.375677 11.154977 0.000000 0.000000 0.000000 -42.296540 19.872860 98.819729 -84.595069 -59.889302 -55.321002 -69.119294 -15.484527 -35.421222 0.000000 0.000000 0.000000 7.125000 0.000000 0.000000 -18.179220 -31.120203 -25.722974
